<?xml version="1.0" encoding="utf-8"?>
<!-- Generator: Adobe Illustrator 19.2.1, SVG Export Plug-In . SVG Version: 6.00 Build 0)  -->
<svg version="1.1" id="Layer_1" xmlns="http://www.w3.org/2000/svg" xmlns:xlink="http://www.w3.org/1999/xlink" x="0px" y="0px"
	 viewBox="0 0 416 480" style="enable-background:new 0 0 416 480;" xml:space="preserve">
<style type="text/css">
	.st0{fill:#FFFFFF;}
</style>
<path class="st0" d="M359.3,358.7c-2.5-9.1-10.9-15.3-20.3-15h-0.1l-168.5,15.8l-21.2-14.1c-1.4-1.1-3.1-1.6-4.9-1.6H104
	c0-4.4-3.6-8-8-8H64c-4.4,0-8,3.6-8,8v95.9c0,4.4,3.6,8,8,8h32c4.4,0,8-3.6,8-8h14.2l70.5,39c2.6,1.4,5.7,1.3,8.1-0.2l153-96.8
	C357.9,377,361.7,367.6,359.3,358.7z M88,431.6H72v-79.9h16V431.6z M341.6,367.9l-149.3,94.4l-68.2-37.7c-1.2-0.7-2.5-1-3.9-1H104
	v-63.9h37.8l22,14.6c0.1,0,0.2,0.1,0.2,0.1l30.4,20.2c5.5,3.6,7,10.9,3.4,16.3c-0.2,0.2-0.3,0.5-0.5,0.7c-3.9,5-11,6.2-16.3,2.8
	L148.7,393l-8.9,13.3l32.5,21.5c12.4,8.2,29,5.3,37.9-6.5c9.3-12.2,6.9-29.6-5.3-38.9c-0.5-0.4-1-0.7-1.5-1.1l-11.7-7.8l148-13.8
	c2-0.1,3.8,1.3,4.2,3.2C344.4,364.9,343.4,367,341.6,367.9z"/>
<path class="st0" d="M377.1,298.7c-2.5,4.6-5.2,9.2-8.1,13.6l13.4,8.7c3.1-4.8,6.1-9.7,8.8-14.8L377.1,298.7z"/>
<path class="st0" d="M32.4,285.6l-14.6,6.5c2.3,5.2,4.9,10.4,7.6,15.4l14-7.7C36.9,295.2,34.6,290.4,32.4,285.6z"/>
<path class="st0" d="M389.8,269.7c-1.7,5-3.6,9.9-5.7,14.8l14.7,6.4c2.3-5.3,4.4-10.6,6.2-16L389.8,269.7z"/>
<path class="st0" d="M22,255.7l-15.5,4c1.4,5.5,3.1,11.1,5,16.4l15.1-5.3C24.9,265.9,23.3,260.8,22,255.7z"/>
<path class="st0" d="M397.5,239c-0.9,5.2-1.9,10.4-3.2,15.5l15.5,3.9c1.4-5.5,2.6-11.2,3.5-16.8L397.5,239z"/>
<path class="st0" d="M16.7,224.5l-15.9,1.4c0.5,5.7,1.2,11.4,2.2,17l15.8-2.7C17.8,235,17.2,229.8,16.7,224.5z"/>
<path class="st0" d="M400,207.8c0,5.1-0.2,10.3-0.6,15.4l16,1.3c0.4-5.5,0.7-11.1,0.7-16.7v-0.4L400,207.8z"/>
<path class="st0" d="M0.7,190.7C0.2,196.3,0,202.1,0,207.8v0.9h16v-0.9c0-5.3,0.2-10.6,0.6-15.8L0.7,190.7z"/>
<path class="st0" d="M413.1,173.2l-15.8,2.6c0.9,5.2,1.5,10.4,2,15.7l15.9-1.3C414.8,184.5,414.1,178.8,413.1,173.2z"/>
<path class="st0" d="M6.3,156.8c-1.4,5.5-2.6,11.2-3.5,16.8l15.8,2.6c0.9-5.2,1.9-10.4,3.2-15.5L6.3,156.8z"/>
<path class="st0" d="M404.7,140l-15.1,5.2c1.7,5,3.2,10.1,4.6,15.2l15.5-3.9C408.2,150.9,406.5,145.3,404.7,140z"/>
<path class="st0" d="M17.4,124.4c-2.3,5.2-4.4,10.6-6.2,16l15.1,5.2c1.7-5,3.6-9.9,5.8-14.8L17.4,124.4z"/>
<path class="st0" d="M390.8,108.6l-14.1,7.6c2.5,4.6,4.9,9.4,7,14.2l14.6-6.5C396.1,118.8,393.5,113.6,390.8,108.6z"/>
<path class="st0" d="M33.8,94.2c-3.1,4.8-6.1,9.8-8.8,14.7l14.1,7.6c2.5-4.6,5.2-9.2,8.1-13.6L33.8,94.2z"/>
<path class="st0" d="M371.9,79.9l-12.6,9.9c3.3,4.2,6.4,8.5,9.2,12.9l13.4-8.8C378.8,89.1,375.5,84.4,371.9,79.9z"/>
<path class="st0" d="M54.9,67.1c-3.9,4.2-7.6,8.6-11.1,13.1L56.4,90c3.2-4.1,6.7-8.2,10.3-12.1L54.9,67.1z"/>
<path class="st0" d="M348.7,54.7l-10.8,11.8c3.9,3.5,7.6,7.3,11.2,11.2l11.8-10.8C356.9,62.6,352.8,58.6,348.7,54.7z"/>
<path class="st0" d="M80.2,43.9c-4.5,3.5-8.9,7.2-13.1,11.1l10.8,11.8c3.9-3.6,7.9-7,12.1-10.3L80.2,43.9z"/>
<path class="st0" d="M321.5,33.7l-8.7,13.4c4.4,2.9,8.8,6,12.9,9.2l9.8-12.6C331,40.1,326.3,36.8,321.5,33.7z"/>
<path class="st0" d="M108.9,25.1c-5,2.7-10,5.7-14.7,8.8l8.8,13.4c4.4-2.9,9-5.6,13.6-8.1L108.9,25.1z"/>
<path class="st0" d="M291.3,17.3L284.9,32c4.8,2.1,9.6,4.4,14.3,6.9l7.6-14.1C301.7,22.2,296.5,19.6,291.3,17.3z"/>
<path class="st0" d="M140.3,11.3c-5.4,1.9-10.8,4-16,6.3l6.5,14.6c4.8-2.1,9.8-4.1,14.8-5.8L140.3,11.3z"/>
<path class="st0" d="M258.8,6.3l-3.9,15.5c5.1,1.3,10.2,2.8,15.2,4.5l5.2-15.1C269.9,9.3,264.3,7.6,258.8,6.3z"/>
<path class="st0" d="M173.6,2.8c-5.6,0.9-11.3,2.1-16.8,3.5l3.9,15.5c5.1-1.3,10.3-2.4,15.5-3.3L173.6,2.8z"/>
<path class="st0" d="M224.9,0.7l-1.3,15.9c5.3,0.4,10.6,1.1,15.7,1.9L242,2.8C236.4,1.8,230.6,1.1,224.9,0.7z"/>
<path class="st0" d="M207.8,0c-5.7,0-11.5,0.2-17.2,0.7l1.3,15.9c5.3-0.4,10.6-0.7,15.9-0.7L207.8,0z"/>
<path class="st0" d="M167.7,235.2c-0.6-0.7-1.3-1.4-2-2c-12.7-11.6-31.8-12.5-45.7-2.3c-13.8-10.2-33-9.2-45.7,2.3
	c-12.9,11.8-13.8,31.8-2,44.8c0.6,0.7,1.3,1.4,2,2l0,0l40.2,37.6c3.1,2.9,7.9,2.9,10.9,0l40.2-37.6
	C178.6,268.2,179.5,248.1,167.7,235.2z M156,267.1c-0.4,0.4-0.8,0.8-1.2,1.2L120,300.8l-34.8-32.5c-6.5-5.8-7-15.7-1.2-22.2
	c0.4-0.4,0.8-0.8,1.2-1.2c7.5-6.9,19.1-6.9,26.6,0l2.7,2.5c3.1,2.9,7.9,2.9,10.9,0l2.7-2.5c7.5-6.9,19.1-6.9,26.6,0
	C161.2,250.7,161.8,260.6,156,267.1z"/>
<path class="st0" d="M264,239.8h16v16h-16V239.8z"/>
<path class="st0" d="M296,239.8h16v16h-16V239.8z"/>
<path class="st0" d="M299,270.1c-3.6,6.1-11.5,8.1-17.5,4.5c-1.8-1.1-3.4-2.6-4.5-4.5l-12.3,10.2c9.1,12.9,27,15.9,39.8,6.7
	c2.6-1.9,4.9-4.1,6.7-6.7L299,270.1z"/>
<path class="st0" d="M288,207.8c-30.9,0-56,25.1-56,56c0,30.9,25.1,56,56,56s56-25.1,56-56C344,232.9,318.9,207.8,288,207.8z
	 M288,303.7c-22.1,0-40-17.9-40-40c0-22.1,17.9-39.9,40-40c22.1,0,40,17.9,40,40C328,285.8,310.1,303.7,288,303.7z"/>
<path class="st0" d="M268.1,111.9c2.6-3.5,3.9-7.7,3.9-12c0.1-10.9-8.7-19.9-19.6-20h-30.8v-12c0.2-10.8-8.4-19.8-19.3-20
	c-10.8-0.2-19.8,8.4-20,19.3c0,0.2,0,0.5,0,0.7v12H136c-4.4,0-8,3.6-8,8v71.9c0,4.4,3.6,8,8,8h116.4c10.9-0.1,19.7-9.1,19.6-20
	c0-4.3-1.4-8.5-3.9-12C273.3,128.8,273.3,119,268.1,111.9z M160,151.9h-16v-56h16V151.9z M252.4,119.9c2.2,0.2,3.8,2.2,3.6,4.4
	c-0.2,1.9-1.7,3.4-3.6,3.6c-4.4,0-8,3.6-8,8c0,4.4,3.6,8,8,8c2.2,0.2,3.8,2.2,3.6,4.4c-0.2,1.9-1.7,3.4-3.6,3.6H176v-56h14.3
	c4.4,0,8-3.6,8-8v-20c-0.2-2,1.3-3.8,3.3-4c2-0.2,3.8,1.3,4,3.3c0,0.2,0,0.5,0,0.7v20c0,4.4,3.6,8,8,8h38.8c2.2,0.2,3.8,2.2,3.6,4.4
	c-0.2,1.9-1.7,3.4-3.6,3.6c-4.4,0-8,3.6-8,8C244.4,116.3,247.9,119.9,252.4,119.9z"/>
</svg>
