<?xml version="1.0" encoding="utf-8"?>
<!-- Generator: Adobe Illustrator 19.2.1, SVG Export Plug-In . SVG Version: 6.00 Build 0)  -->
<svg version="1.1" id="Layer_1" xmlns="http://www.w3.org/2000/svg" xmlns:xlink="http://www.w3.org/1999/xlink" x="0px" y="0px"
	 viewBox="0 0 480 480" style="enable-background:new 0 0 480 480;" xml:space="preserve">
<style type="text/css">
	.st0{fill:#FFFFFF;}
</style>
<path class="st0" d="M276.3,160.8c2.5-5.2,3.7-10.9,3.7-16.7c0-22.1-17.9-40-40-40s-40,17.9-40,40c0,5.8,1.3,11.5,3.7,16.7
	c-25.2,4.2-43.7,26-43.7,51.6v75.8c0,4.4,3.6,8,8,8h24v104.1c0,4.4,3.6,8,8,8h80c4.4,0,8-3.6,8-8V296.2h24c4.4,0,8-3.6,8-8v-75.8
	C320,186.9,301.5,165,276.3,160.8z M304,280.2h-16v-80.1h-16v192.1h-24V280.2h-16v112.1h-24V200.2h-16v80.1h-16v-67.8
	c0-20,16.3-36.3,36.3-36.3h6.8c4.4,0,8-3.6,8-8c0-2.3-1-4.5-2.7-6c-5.3-4.5-8.3-11.1-8.3-18c0-13.3,10.7-24,24-24
	c13.3,0,24,10.8,24,24c0,6.9-3,13.5-8.3,18c-3.3,2.9-3.7,8-0.8,11.3c1.5,1.7,3.7,2.7,6,2.7h6.8c20,0,36.3,16.3,36.3,36.3V280.2z"/>
<path class="st0" d="M384,40h16v16h-16V40z"/>
<path class="st0" d="M432,40h16v16h-16V40z"/>
<path class="st0" d="M429.9,72.3c-4.8,7.7-14.9,9.9-22.6,5.1c-2.1-1.3-3.8-3.1-5.1-5.1l-12.3,10.2C400,97,420,100.4,434.5,90.2
	c3-2.1,5.6-4.7,7.7-7.7L429.9,72.3z"/>
<path class="st0" d="M416,0c-35.3,0-64,28.7-64,64s28.7,64,64,64s64-28.7,64-64C480,28.7,451.3,0,416,0z M416,112.1
	c-26.5,0-48-21.5-48-48s21.5-48,48-48c26.5,0,48,21.5,48,48C464,90.6,442.5,112.1,416,112.1z"/>
<path class="st0" d="M432,416.3v-16h-16v16h-16v16h16v16h16v-16h16v-16H432z"/>
<path class="st0" d="M424,368.3c-30.9,0-56,25.1-56,56s25.1,56,56,56s56-25.1,56-56C480,393.4,454.9,368.3,424,368.3z M424,464.4
	c-22.1,0-40-17.9-40-40c0-22.1,17.9-40,40-40s40,17.9,40,40C464,446.4,446.1,464.3,424,464.4z"/>
<path class="st0" d="M120,360.3H56c-22.1,0-40,17.9-40,40v8c0,19,13.4,35.4,32,39.2v24.8c0,3.2,1.9,6.2,4.9,7.4
	c3,1.2,6.4,0.6,8.7-1.7l29.7-29.7H120c22.1,0,40-17.9,40-40v-8C160,378.2,142.1,360.3,120,360.3z M144,408.3c0,13.3-10.8,24-24,24
	H88c-2.1,0-4.2,0.8-5.7,2.3L64,453v-12.7c0-4.4-3.6-8-8-8c-13.2,0-24-10.8-24-24v-8c0-13.3,10.8-24,24-24h64c13.2,0,24,10.8,24,24
	V408.3z"/>
<path class="st0" d="M112,392.3h16v16h-16V392.3z"/>
<path class="st0" d="M48,392.3h48v16H48V392.3z"/>
<path class="st0" d="M142.5,235.5c-0.5-0.7-1.1-1.3-1.9-1.9l-56-40c-3.6-2.6-8.6-1.7-11.2,1.9c-1,1.4-1.5,3-1.5,4.7l0.1,15.9H8
	c-4.4,0-8,3.6-8,8v32c0,4.4,3.6,8,8,8h64.2v16c0,4.4,3.6,8,8,8c1.7,0,3.3-0.5,4.7-1.5l55.8-40C144.3,244.1,145.1,239.1,142.5,235.5z
	 M88.2,264.6v-8.4c0-4.4-3.6-8-8-8H16v-16h64.2c4.4,0,8-3.6,8-8c0,0,0-0.1,0-0.1l-0.1-8.3l34.1,24.4L88.2,264.6z"/>
<path class="st0" d="M472,216.2h-64.2v-16c0-4.4-3.6-8-8-8c-1.7,0-3.3,0.5-4.7,1.5l-55.8,40c-3.6,2.6-4.4,7.6-1.8,11.2
	c0.5,0.7,1.1,1.3,1.9,1.9l56,40c3.6,2.6,8.6,1.7,11.2-1.9c1-1.4,1.5-3,1.5-4.7l-0.1-15.9H472c4.4,0,8-3.6,8-8v-32
	C480,219.8,476.4,216.2,472,216.2z M464,248.2h-64.2c-4.4,0-8,3.6-8,8c0,0,0,0.1,0,0.1l0.1,8.3l-34.1-24.4l34-24.4v8.4
	c0,4.4,3.6,8,8,8H464V248.2z"/>
<path class="st0" d="M464,120.1h16v16h-16V120.1z"/>
<path class="st0" d="M464,152.1h16v16h-16V152.1z"/>
<path class="st0" d="M464,184.1h16v16h-16V184.1z"/>
<path class="st0" d="M464,280.2h16v16h-16V280.2z"/>
<path class="st0" d="M464,312.2h16v16h-16V312.2z"/>
<path class="st0" d="M464,344.3h16v16h-16V344.3z"/>
<path class="st0" d="M0,280.2h16v16H0V280.2z"/>
<path class="st0" d="M0,312.2h16v16H0V312.2z"/>
<path class="st0" d="M0,344.3h16v16H0V344.3z"/>
<path class="st0" d="M0,120.1h16v16H0V120.1z"/>
<path class="st0" d="M0,152.1h16v16H0V152.1z"/>
<path class="st0" d="M0,184.1h16v16H0V184.1z"/>
<path class="st0" d="M128.8,46.7c-0.1-0.1-0.3-0.3-0.4-0.4c-8.7-8.5-22.2-9.8-32.4-3.1c-10.2-6.7-23.7-5.4-32.4,3.1
	C53.6,56,53.5,72,63.2,81.9c0.1,0.1,0.3,0.3,0.4,0.4l26.8,26.4c3.1,3.1,8.1,3.1,11.2,0l26.8-26.4C138.4,72.6,138.5,56.7,128.8,46.7z
	 M117.4,70.7c-0.1,0.1-0.1,0.1-0.2,0.2l0,0L96,91.7L74.8,70.9c-3.6-3.5-3.7-9.3-0.2-13c0.1-0.1,0.1-0.1,0.2-0.2
	c3.8-3.7,10-3.7,13.8,0l1.8,1.8c3.1,3.1,8.1,3.1,11.2,0l1.8-1.8c3.8-3.7,10-3.7,13.8,0C120.8,61.3,120.9,67.1,117.4,70.7z"/>
<path class="st0" d="M159,37.2C146.3,14.2,122.2,0,96,0C83.8,0,71.8,3.1,61.1,9h0C26.3,28.3,13.7,72.1,33,107s63.1,47.4,97.9,28.2
	C165.6,115.9,178.3,72,159,37.2z M123.1,121.1c-8.3,4.6-17.6,7-27.1,7c-30.9,0-56-25.1-56-56.1c0-20.4,11.1-39.2,28.9-49h0
	C95.9,8,130,17.8,145,44.9C160,72,150.2,106.1,123.1,121.1z"/>
</svg>
