<?xml version="1.0" encoding="utf-8"?>
<!-- Generator: Adobe Illustrator 19.2.1, SVG Export Plug-In . SVG Version: 6.00 Build 0)  -->
<svg version="1.1" id="Layer_1" xmlns="http://www.w3.org/2000/svg" xmlns:xlink="http://www.w3.org/1999/xlink" x="0px" y="0px"
	 viewBox="0 0 480 480" style="enable-background:new 0 0 480 480;" xml:space="preserve">
<style type="text/css">
	.st0{fill:#FFFFFF;}
</style>
<path class="st0" d="M63.8,40c-13.2,0-24,10.7-24,24c0,13.2,10.7,24,24,24c13.2,0,24-10.7,24-24C87.8,50.7,77.1,40,63.8,40z
	 M63.8,72c-4.4,0-8-3.6-8-8c0-4.4,3.6-8,8-8c4.4,0,8,3.6,8,8S68.3,72,63.8,72z"/>
<path class="st0" d="M123.3,49.3l-9.7-4.8c-0.3-0.7-0.6-1.4-0.9-2.1l3.2-9.9c0.8-2.5,0.3-5.2-1.2-7.3c-3.5-4.6-7.6-8.7-12.1-12.1
	c-2.1-1.6-4.8-2-7.3-1.3L85.4,15c-0.7-0.3-1.4-0.6-2.1-0.9l-4.8-9.7C77.2,1.7,74.4,0,71.3,0h-15c-3,0-5.8,1.7-7.2,4.5l-4.8,9.7
	c-0.7,0.3-1.4,0.6-2.1,0.9l-9.9-3.2c-2.5-0.8-5.2-0.3-7.3,1.3c-4.6,3.5-8.7,7.6-12.1,12.1c-1.6,2.1-2,4.8-1.3,7.3l3.2,9.9
	c-0.3,0.7-0.6,1.4-0.9,2.1l-9.7,4.8c-2.7,1.3-4.5,4.1-4.5,7.2v15c0,3,1.7,5.8,4.5,7.2l9.7,4.8c0.3,0.7,0.6,1.4,0.9,2.1l-3.2,9.9
	c-0.8,2.5-0.3,5.2,1.3,7.3c3.5,4.6,7.6,8.7,12.1,12.1c2.1,1.6,4.8,2,7.3,1.3l9.9-3.2c0.7,0.3,1.4,0.6,2.1,0.9l4.8,9.7
	c1.3,2.7,4.1,4.5,7.2,4.5h15c3,0,5.8-1.7,7.2-4.5l4.8-9.7c0.7-0.3,1.4-0.6,2.1-0.9l9.9,3.2c2.5,0.8,5.2,0.3,7.3-1.3
	c4.6-3.5,8.7-7.6,12.1-12.1c1.6-2.1,2-4.8,1.3-7.3l-3.2-9.9c0.3-0.7,0.6-1.4,0.9-2.1l9.7-4.8c2.7-1.3,4.5-4.1,4.5-7.2v-15
	C127.8,53.4,126.1,50.7,123.3,49.3z M111.8,66.5l-8.1,4c-2,1-3.4,2.7-4.1,4.8c-0.7,2-1.5,4-2.5,5.9c-1,1.9-1.2,4.1-0.5,6.1l2.8,8.8
	c-1.1,1.2-2.2,2.3-3.4,3.4l-8.8-2.8c-2-0.7-4.2-0.5-6.1,0.5c-1.9,1-3.9,1.8-5.9,2.5c-2.1,0.7-3.8,2.1-4.8,4.1l-4,8.1h-5.1l-4-8.1
	c-1-2-2.7-3.4-4.8-4.1c-2-0.7-4-1.5-5.9-2.5c-1.9-1-4.1-1.2-6.1-0.5l-8.8,2.8c-1.2-1.1-2.3-2.2-3.4-3.4l2.8-8.8
	c0.6-2,0.5-4.2-0.5-6.1c-1-1.9-1.8-3.9-2.5-5.9c-0.7-2.1-2.1-3.8-4.1-4.8l-8.1-4v-5.1l8.1-4c2-1,3.4-2.7,4.1-4.8
	c0.7-2,1.5-4,2.5-5.9c1-1.9,1.2-4.1,0.5-6.1l-2.8-8.8c1.1-1.2,2.2-2.3,3.4-3.4l8.8,2.8c2,0.6,4.2,0.4,6.1-0.5c1.9-1,3.9-1.8,5.9-2.5
	c2.1-0.7,3.8-2.1,4.8-4.1l4-8.1h5.1l4,8.1c1,2,2.7,3.4,4.8,4.1c2,0.7,4,1.5,5.9,2.5c1.9,1,4.1,1.2,6.1,0.5l8.8-2.8
	c1.2,1.1,2.3,2.2,3.4,3.4l-2.8,8.8c-0.6,2-0.5,4.2,0.5,6.1c1,1.9,1.8,3.9,2.5,5.9c0.7,2.1,2.1,3.8,4.1,4.8l8.1,4V66.5z"/>
<path class="st0" d="M118.9,201.9c-5.7-6.3-13.8-9.9-22.2-9.9h0c-8.5,0-16.6,3.6-22.3,9.9l-10.5,11.4l-10.5-11.4
	c-5.7-6.3-13.8-9.9-22.3-9.9h0c-8.5,0-16.6,3.6-22.2,9.9C-3,215.1-3,235.1,8.8,248.2L58,301.4c3,3.2,8.1,3.4,11.3,0.4
	c0.2-0.1,0.3-0.3,0.4-0.4l49.2-53.2C130.7,235.1,130.7,215.1,118.9,201.9z M107.1,237.4l-43.3,46.8l-43.3-46.9
	c-6.3-7-6.3-17.6,0-24.6c5.1-5.8,13.9-6.4,19.7-1.3c0.5,0.4,0.9,0.8,1.3,1.3L58,230.5c3.2,3.2,8.4,3.3,11.6,0.1c0,0,0.1-0.1,0.1-0.1
	l16.4-17.7c5.1-5.8,13.9-6.4,19.7-1.3c0.5,0.4,0.9,0.8,1.3,1.3C113.4,219.8,113.4,230.4,107.1,237.4z"/>
<path class="st0" d="M113.3,379.3l-59.4,81.8l-41.6-27.7l-8.9,13.3l48,32c1.3,0.9,2.9,1.3,4.4,1.3c2.6,0,5-1.2,6.5-3.3l63.9-88
	L113.3,379.3z"/>
<path class="st0" d="M143.8,232h24v16h-24V232z"/>
<path class="st0" d="M261.3,234.3C261.3,234.3,261.3,234.3,261.3,234.3l-32-32l-11.3,11.3l18.3,18.3h-36.7V56h-16v368h16V248h36.7
	l-18.3,18.3l11.3,11.3l32-32C264.4,242.5,264.5,237.5,261.3,234.3z"/>
<path class="st0" d="M359.6,160c-22.1,0-40,17.9-40,40c0,22.1,17.9,40,40,40s40-17.9,40-40C399.5,177.9,381.7,160,359.6,160z
	 M359.6,224c-13.2,0-24-10.7-24-24c0-13.3,10.7-24,24-24s24,10.7,24,24C383.6,213.2,372.8,224,359.6,224z"/>
<path class="st0" d="M478.7,384.9l-57.9-119.7l1.8,0.2c5.5,0.7,11-1.7,14.3-6.2c3.5-4.7,4.2-10.9,1.8-16.3l-8.2-18.9l17.1-10.1
	c7.7-4.6,10.1-14.6,5.5-22.3c-1.4-2.3-3.3-4.2-5.5-5.5l-17-10.3l8.1-18.6c2.3-5.4,1.6-11.6-1.8-16.3c-3.3-4.5-8.8-6.9-14.3-6.2
	l-19.1,2.4l-3.8-20.1c-1.1-5.7-5.2-10.4-10.7-12.2c-5.4-1.7-11.3-0.3-15.4,3.6l-13.7,13.9l-14.4-13.9c-4-3.9-9.8-5.4-15.1-3.7
	c-5.5,1.8-9.6,6.4-10.6,12.1l-3.8,20.2l-19.4-2.4c-5.5-0.7-11,1.7-14.3,6.2c-3.5,4.7-4.2,10.9-1.8,16.3l8.2,18.9l-17.1,10.1
	c-7.7,4.6-10.1,14.6-5.5,22.3c1.4,2.3,3.3,4.2,5.5,5.5l17,10.3l-8.1,18.6c-2.3,5.4-1.7,11.6,1.8,16.3c3.3,4.5,8.8,6.9,14.3,6.2
	l1.8-0.2l-57.7,117.3c-1.9,4-0.3,8.8,3.7,10.7c2.6,1.3,5.6,1.1,8-0.6l35.5-24.1V424c0,4,2.9,7.4,6.9,7.9c0.4,0.1,0.8,0.1,1.1,0.1
	c3.5,0,6.7-2.3,7.7-5.7l38.8-132.2c1.2-0.7,2.4-1.5,3.4-2.5l13.7-13.9l14.4,13.9c1,1,2.2,1.8,3.4,2.4l38.8,132.2
	c1,3.4,4.1,5.7,7.7,5.7c0.4,0,0.8,0,1.1-0.1c3.9-0.6,6.9-3.9,6.9-7.9l0-55.9l35.1,26.6c3.5,2.7,8.5,2,11.2-1.5
	C479.7,390.8,480,387.6,478.7,384.9z M303.6,368.4v-15c0-3-1.6-5.7-4.2-7.1c-2.6-1.4-5.8-1.2-8.2,0.5l-22.9,15.6l47.8-97.1l3.4,17.8
	c0.8,4,3.1,7.6,6.4,10L303.6,368.4z M387.9,259.9l-3.2,20.2l-14.4-13.9c-6-5.8-15.5-5.8-21.5,0L335.1,280l-3.8-20.1
	c-1.5-8.1-9-13.7-17.2-12.8l-19,2.2l8.1-18.6c3.3-7.5,0.5-16.2-6.5-20.5l-17.1-10.3l17.1-10.1c7-4.2,9.8-13,6.5-20.5l-8.6-18.8
	l19.4,2.4c8.2,0.9,15.7-4.6,17.2-12.7l4.1-19.4l13.5,13c6,5.8,15.5,5.8,21.5,0L384,120l3.8,20.1c1.5,8.1,9,13.7,17.2,12.8l19-2.2
	l-8.1,18.6c-3.3,7.5-0.5,16.2,6.5,20.5l17,10.3l-17,10c-7,4.2-9.8,13-6.5,20.5l8.6,18.8l-19.4-2.4
	C396.9,246.2,389.4,251.8,387.9,259.9z M428.4,345.6c-3.5-2.7-8.5-2-11.2,1.5c-1.1,1.4-1.6,3.1-1.6,4.8v16.5L393.4,293
	c3.3-2.4,5.6-5.9,6.4-10l3.2-18.3l46.9,97.1L428.4,345.6z"/>
<path class="st0" d="M143.8,48h24v16h-24V48z"/>
<path class="st0" d="M143.8,416h24v16h-24V416z"/>
</svg>
